<mxfile host="app.diagrams.net" modified="2024-06-23T17:51:39.414Z" agent="Mozilla/5.0 (Windows NT 10.0; Win64; x64) AppleWebKit/537.36 (KHTML, like Gecko) Chrome/126.0.0.0 Safari/537.36" etag="zw2PAPe5fWUdZqQ5rKsk" version="24.6.2" type="device">
  <diagram name="Page-1" id="5f0bae14-7c28-e335-631c-24af17079c00">
    <mxGraphModel dx="1659" dy="773" grid="1" gridSize="10" guides="1" tooltips="1" connect="1" arrows="1" fold="1" page="1" pageScale="1" pageWidth="1100" pageHeight="850" background="none" math="0" shadow="0">
      <root>
        <mxCell id="0" />
        <mxCell id="1" parent="0" />
        <mxCell id="Xoz_wu2uhGcAJo--XYZI-42" value="" style="whiteSpace=wrap;html=1;aspect=fixed;" vertex="1" parent="1">
          <mxGeometry x="830" y="160" width="580" height="580" as="geometry" />
        </mxCell>
        <mxCell id="Xoz_wu2uhGcAJo--XYZI-27" value="" style="whiteSpace=wrap;html=1;aspect=fixed;" vertex="1" parent="1">
          <mxGeometry x="40" y="30" width="710" height="710" as="geometry" />
        </mxCell>
        <mxCell id="Xoz_wu2uhGcAJo--XYZI-4" value="Admin Control Panel&lt;br&gt; (&lt;b&gt;Presentation Layer&lt;/b&gt;)&amp;nbsp;&amp;nbsp;" style="html=1;rounded=0;shadow=0;comic=0;labelBackgroundColor=none;strokeWidth=1;fontFamily=Verdana;fontSize=12;align=center;" vertex="1" parent="1">
          <mxGeometry x="900" y="170" width="180" height="90" as="geometry" />
        </mxCell>
        <mxCell id="Xoz_wu2uhGcAJo--XYZI-5" value="" style="whiteSpace=wrap;html=1;aspect=fixed;" vertex="1" parent="1">
          <mxGeometry x="60" y="80" width="630" height="630" as="geometry" />
        </mxCell>
        <mxCell id="Xoz_wu2uhGcAJo--XYZI-6" value="" style="html=1;rounded=0;shadow=0;comic=0;labelBackgroundColor=none;strokeWidth=1;fontFamily=Verdana;fontSize=12;align=center;" vertex="1" parent="1">
          <mxGeometry x="252.5" y="100" width="230" height="100" as="geometry" />
        </mxCell>
        <mxCell id="Xoz_wu2uhGcAJo--XYZI-7" value="Client Side&amp;nbsp;" style="text;html=1;align=center;verticalAlign=middle;whiteSpace=wrap;rounded=0;" vertex="1" parent="1">
          <mxGeometry x="40" width="100" height="30" as="geometry" />
        </mxCell>
        <mxCell id="Xoz_wu2uhGcAJo--XYZI-8" value="Authentication" style="text;html=1;align=center;verticalAlign=middle;whiteSpace=wrap;rounded=0;" vertex="1" parent="1">
          <mxGeometry x="275" y="80" width="60" height="30" as="geometry" />
        </mxCell>
        <mxCell id="Xoz_wu2uhGcAJo--XYZI-9" value="Login" style="whiteSpace=wrap;html=1;aspect=fixed;" vertex="1" parent="1">
          <mxGeometry x="277.5" y="110" width="80" height="80" as="geometry" />
        </mxCell>
        <mxCell id="Xoz_wu2uhGcAJo--XYZI-10" value="Sign up" style="whiteSpace=wrap;html=1;aspect=fixed;" vertex="1" parent="1">
          <mxGeometry x="380" y="110" width="80" height="80" as="geometry" />
        </mxCell>
        <mxCell id="Xoz_wu2uhGcAJo--XYZI-11" value="Search Parking Location" style="whiteSpace=wrap;html=1;aspect=fixed;" vertex="1" parent="1">
          <mxGeometry x="390" y="215" width="70" height="70" as="geometry" />
        </mxCell>
        <mxCell id="Xoz_wu2uhGcAJo--XYZI-13" value="" style="rounded=0;whiteSpace=wrap;html=1;" vertex="1" parent="1">
          <mxGeometry x="170" y="310" width="370" height="110" as="geometry" />
        </mxCell>
        <mxCell id="Xoz_wu2uhGcAJo--XYZI-15" value="Select Levels" style="whiteSpace=wrap;html=1;aspect=fixed;" vertex="1" parent="1">
          <mxGeometry x="182.5" y="330" width="70" height="70" as="geometry" />
        </mxCell>
        <mxCell id="Xoz_wu2uhGcAJo--XYZI-16" value="Booking Pages" style="text;html=1;align=center;verticalAlign=middle;whiteSpace=wrap;rounded=0;" vertex="1" parent="1">
          <mxGeometry x="172.5" y="285" width="105" height="30" as="geometry" />
        </mxCell>
        <mxCell id="Xoz_wu2uhGcAJo--XYZI-17" value="Select Zone" style="whiteSpace=wrap;html=1;aspect=fixed;" vertex="1" parent="1">
          <mxGeometry x="277.5" y="330" width="70" height="70" as="geometry" />
        </mxCell>
        <mxCell id="Xoz_wu2uhGcAJo--XYZI-18" value="Select Slots" style="whiteSpace=wrap;html=1;aspect=fixed;" vertex="1" parent="1">
          <mxGeometry x="370" y="330" width="70" height="70" as="geometry" />
        </mxCell>
        <mxCell id="Xoz_wu2uhGcAJo--XYZI-19" value="Set Booking Details" style="whiteSpace=wrap;html=1;aspect=fixed;" vertex="1" parent="1">
          <mxGeometry x="460" y="330" width="70" height="70" as="geometry" />
        </mxCell>
        <mxCell id="Xoz_wu2uhGcAJo--XYZI-22" value="" style="rounded=0;whiteSpace=wrap;html=1;" vertex="1" parent="1">
          <mxGeometry x="166.25" y="450" width="377.5" height="110" as="geometry" />
        </mxCell>
        <mxCell id="Xoz_wu2uhGcAJo--XYZI-23" value="Payment" style="text;html=1;align=center;verticalAlign=middle;whiteSpace=wrap;rounded=0;" vertex="1" parent="1">
          <mxGeometry x="150" y="430" width="105" height="30" as="geometry" />
        </mxCell>
        <mxCell id="Xoz_wu2uhGcAJo--XYZI-25" value="Register For Car" style="whiteSpace=wrap;html=1;aspect=fixed;" vertex="1" parent="1">
          <mxGeometry x="287.5" y="215" width="70" height="70" as="geometry" />
        </mxCell>
        <mxCell id="Xoz_wu2uhGcAJo--XYZI-26" value="Add Card" style="whiteSpace=wrap;html=1;aspect=fixed;" vertex="1" parent="1">
          <mxGeometry x="182.5" y="470" width="70" height="70" as="geometry" />
        </mxCell>
        <mxCell id="Xoz_wu2uhGcAJo--XYZI-28" value="Web Application" style="text;html=1;align=center;verticalAlign=middle;whiteSpace=wrap;rounded=0;" vertex="1" parent="1">
          <mxGeometry x="66.25" y="50" width="100" height="30" as="geometry" />
        </mxCell>
        <mxCell id="Xoz_wu2uhGcAJo--XYZI-31" value="Confirm Payment" style="whiteSpace=wrap;html=1;aspect=fixed;" vertex="1" parent="1">
          <mxGeometry x="275" y="470" width="70" height="70" as="geometry" />
        </mxCell>
        <mxCell id="Xoz_wu2uhGcAJo--XYZI-34" value="Wallet" style="whiteSpace=wrap;html=1;aspect=fixed;" vertex="1" parent="1">
          <mxGeometry x="357.5" y="470" width="70" height="70" as="geometry" />
        </mxCell>
        <mxCell id="Xoz_wu2uhGcAJo--XYZI-35" value="Notification Page" style="rounded=0;whiteSpace=wrap;html=1;" vertex="1" parent="1">
          <mxGeometry x="95" y="580" width="107.5" height="110" as="geometry" />
        </mxCell>
        <mxCell id="Xoz_wu2uhGcAJo--XYZI-36" value="User Details Page" style="rounded=0;whiteSpace=wrap;html=1;" vertex="1" parent="1">
          <mxGeometry x="240" y="580" width="107.5" height="110" as="geometry" />
        </mxCell>
        <mxCell id="Xoz_wu2uhGcAJo--XYZI-37" value="Booking History Page" style="rounded=0;whiteSpace=wrap;html=1;" vertex="1" parent="1">
          <mxGeometry x="380" y="580" width="107.5" height="110" as="geometry" />
        </mxCell>
        <mxCell id="Xoz_wu2uhGcAJo--XYZI-40" value="Promo Page" style="whiteSpace=wrap;html=1;aspect=fixed;" vertex="1" parent="1">
          <mxGeometry x="440" y="470" width="70" height="70" as="geometry" />
        </mxCell>
        <mxCell id="Xoz_wu2uhGcAJo--XYZI-41" value="Support Page" style="rounded=0;whiteSpace=wrap;html=1;" vertex="1" parent="1">
          <mxGeometry x="510" y="580" width="107.5" height="110" as="geometry" />
        </mxCell>
        <mxCell id="Xoz_wu2uhGcAJo--XYZI-44" value="Data Logic API&lt;br&gt; (&lt;b&gt;Business Logic&amp;nbsp;Layer&lt;/b&gt;)&amp;nbsp;&amp;nbsp;" style="html=1;rounded=0;shadow=0;comic=0;labelBackgroundColor=none;strokeWidth=1;fontFamily=Verdana;fontSize=12;align=center;" vertex="1" parent="1">
          <mxGeometry x="900" y="285" width="180" height="90" as="geometry" />
        </mxCell>
        <mxCell id="Xoz_wu2uhGcAJo--XYZI-45" value="Data Access API&lt;br&gt; (&lt;b&gt; Data Access Layer &lt;/b&gt;)&amp;nbsp;&amp;nbsp;" style="html=1;rounded=0;shadow=0;comic=0;labelBackgroundColor=none;strokeWidth=1;fontFamily=Verdana;fontSize=12;align=center;" vertex="1" parent="1">
          <mxGeometry x="900" y="400" width="180" height="90" as="geometry" />
        </mxCell>
        <mxCell id="Xoz_wu2uhGcAJo--XYZI-47" value="Server Side&amp;nbsp;" style="text;html=1;align=center;verticalAlign=middle;whiteSpace=wrap;rounded=0;" vertex="1" parent="1">
          <mxGeometry x="830" y="120" width="100" height="30" as="geometry" />
        </mxCell>
        <mxCell id="Xoz_wu2uhGcAJo--XYZI-48" value="ML modal for camera&lt;br&gt; (&lt;b&gt;Machine Learning Layer&lt;/b&gt;)&amp;nbsp;&amp;nbsp;" style="html=1;rounded=0;shadow=0;comic=0;labelBackgroundColor=none;strokeWidth=1;fontFamily=Verdana;fontSize=12;align=center;" vertex="1" parent="1">
          <mxGeometry x="900" y="620" width="180" height="90" as="geometry" />
        </mxCell>
        <mxCell id="Xoz_wu2uhGcAJo--XYZI-49" value="NodeJs API&lt;br&gt; (&lt;b&gt;Event&amp;nbsp;Broker Layer&lt;/b&gt;)&amp;nbsp;&amp;nbsp;" style="html=1;rounded=0;shadow=0;comic=0;labelBackgroundColor=none;strokeWidth=1;fontFamily=Verdana;fontSize=12;align=center;" vertex="1" parent="1">
          <mxGeometry x="1170" y="285" width="180" height="90" as="geometry" />
        </mxCell>
        <mxCell id="Xoz_wu2uhGcAJo--XYZI-50" value="" style="edgeStyle=orthogonalEdgeStyle;rounded=0;orthogonalLoop=1;jettySize=auto;html=1;entryX=0;entryY=0.5;entryDx=0;entryDy=0;" edge="1" parent="1" target="Xoz_wu2uhGcAJo--XYZI-49">
          <mxGeometry relative="1" as="geometry">
            <mxPoint x="1080" y="329.43" as="sourcePoint" />
            <mxPoint x="1120" y="329" as="targetPoint" />
            <Array as="points" />
          </mxGeometry>
        </mxCell>
        <mxCell id="Xoz_wu2uhGcAJo--XYZI-52" value="MongoDB&lt;br&gt; (&lt;b&gt; Data Storage Layer &lt;/b&gt;)&amp;nbsp;&amp;nbsp;" style="html=1;rounded=0;shadow=0;comic=0;labelBackgroundColor=none;strokeWidth=1;fontFamily=Verdana;fontSize=12;align=center;" vertex="1" parent="1">
          <mxGeometry x="900" y="510" width="180" height="90" as="geometry" />
        </mxCell>
      </root>
    </mxGraphModel>
  </diagram>
</mxfile>
